<svg version="1.1"  xmlns="http://www.w3.org/2000/svg" viewBox="0 0 512.001 512.001" width="30px" height="30px">
  <path style="fill:#A07651;" d="M463.838,290.844l36.861-36.875c8.121-8.121,12.167-19.325,11.113-30.763L495.839,50.904
    c-0.856-9.217-4.93-17.48-11.106-23.655c-6.175-6.175-14.437-10.264-23.669-11.12L288.771,0.165
    C277.333-0.89,266.122,3.15,258,11.271L221.14,48.146L11.276,258.051c-15.004,15.004-15.004,39.422,0,54.425l188.266,188.266
    c15.011,15.011,39.429,15.011,54.439,0L463.838,290.844z M371.131,140.853c-15.265-15.265-15.272-40.101-0.007-55.366
    c15.272-15.272,40.108-15.265,55.373,0c15.265,15.265,15.272,40.101,0,55.373C411.231,156.126,386.395,156.118,371.131,140.853z"/>
  <path style="fill:#7E5D40;" d="M253.983,500.743c-15.011,15.011-39.429,15.011-54.439,0l-94.151-94.151l265.738-265.738
    c15.265,15.265,40.101,15.272,55.366,0.007c15.272-15.272,15.265-40.108,0-55.373l58.238-58.238
    c6.175,6.175,10.25,14.437,11.106,23.655l15.972,172.301c1.054,11.438-2.992,22.642-11.113,30.763l-36.861,36.875L253.983,500.743z"
    />
  <path style="fill:#D2EB5A;" d="M253.983,500.743c-15.011,15.011-39.429,15.011-54.439,0L11.276,312.475
    c-15.004-15.004-15.004-39.422,0-54.425L221.14,48.146l242.699,242.699L253.983,500.743z"/>
  <path style="fill:#B4D241;" d="M253.983,500.743c-15.011,15.011-39.429,15.011-54.439,0l-94.151-94.151l237.096-237.096
    l121.349,121.349L253.983,500.743z"/>
  <path style="fill:#B5B51F;" d="M328.018,254.445c-0.42-3.971-1.931-7.253-4.532-9.854c-3.491-3.491-7.413-4.452-11.764-2.891
    l-64.044,22.608l-125.117,44.166c-1.761,0.61-3.171,1.441-4.242,2.511c-2.361,2.361-3.581,5.472-3.631,9.323
    c-0.06,3.841,1.34,7.193,4.182,10.034c3.831,3.831,7.933,4.972,12.285,3.411l72.627-25.55l116.704-41.055
    c1.411-0.48,2.771-1.37,4.072-2.671C327.277,261.757,328.428,258.406,328.018,254.445z M259.412,206.607
    c-0.9-8.583-5.272-16.806-13.125-24.669c-7.923-7.913-16.136-12.275-24.629-13.075c-8.493-0.81-16.876,2.931-25.159,11.214
    l-25.199,25.209c-8.293,8.283-12.024,16.666-11.224,25.159c0.8,8.493,5.162,16.696,13.085,24.619
    c7.853,7.863,16.076,12.235,24.659,13.125c8.583,0.9,17.016-2.801,25.299-11.084l25.209-25.199
    C256.601,223.623,260.302,215.19,259.412,206.607z M231.282,214.87l-25.199,25.199c-5.682,5.682-11.504,5.532-17.487-0.44
    c-5.852-5.862-5.942-11.624-0.26-17.306l25.199-25.209c5.682-5.672,11.454-5.582,17.306,0.27
    C236.814,203.356,236.964,209.188,231.282,214.87z M282.481,343.978c-0.89-8.583-5.272-16.806-13.125-24.659
    c-7.923-7.923-16.126-12.285-24.619-13.085c-8.493-0.8-16.886,2.941-25.169,11.224l-25.199,25.199
    c-8.283,8.283-12.024,16.676-11.224,25.169c0.81,8.493,5.172,16.696,13.085,24.619c7.863,7.853,16.076,12.225,24.669,13.125
    c8.573,0.89,17.016-2.801,25.299-11.084l25.199-25.209C279.68,360.994,283.371,352.561,282.481,343.978z M254.36,352.241
    l-25.199,25.199c-5.682,5.682-11.514,5.532-17.487-0.44c-5.862-5.852-5.942-11.624-0.27-17.306l25.209-25.199
    c5.672-5.682,11.444-5.592,17.306,0.26C259.892,340.737,260.042,346.559,254.36,352.241z"/>
  <g>
    <path style="fill:#98981A;" d="M282.481,343.978c-0.89-8.583-5.272-16.806-13.125-24.659c-7.923-7.923-16.126-12.285-24.619-13.085
      c-8.493-0.8-16.886,2.941-25.169,11.224l-25.199,25.199c-8.283,8.283-12.024,16.676-11.224,25.169
      c0.81,8.493,5.172,16.696,13.085,24.619c7.863,7.853,16.076,12.225,24.669,13.125c8.573,0.89,17.016-2.801,25.299-11.084
      l25.199-25.209C279.68,360.994,283.371,352.561,282.481,343.978z M254.36,352.241l-25.199,25.199
      c-5.682,5.682-11.514,5.532-17.487-0.44c-5.862-5.852-5.942-11.624-0.27-17.306l25.209-25.199
      c5.672-5.682,11.444-5.592,17.306,0.26C259.892,340.737,260.042,346.559,254.36,352.241z"/>
    <path style="fill:#98981A;" d="M324.556,264.478c-1.3,1.3-2.661,2.191-4.072,2.671l-116.704,41.055l43.896-43.896l64.044-22.608
      c4.352-1.561,8.273-0.6,11.764,2.891c2.601,2.601,4.112,5.882,4.532,9.854C328.428,258.406,327.277,261.757,324.556,264.478z"/>
  </g>
</svg>
