<svg xmlns="http://www.w3.org/2000/svg" viewBox="0 0 512 512" width="30px" height="30px">
<path style="fill:#54E360;" d="M452.902,240.052c0,15.542-6.053,30.163-17.046,41.146c-10.993,10.993-25.594,17.046-41.136,17.046
	c-0.01,0-0.01,0-0.02,0c-9.971,0-19.35,3.888-26.415,10.943c-7.055,7.055-10.943,16.434-10.943,26.415
	c0,15.542-6.053,30.163-17.036,41.146c-10.993,10.993-25.603,17.046-41.146,17.046c0,0,0,0-0.01,0
	c-16.915,0-32.177-7.265-42.819-18.839c-0.11-0.12-0.22-0.24-0.331-0.361c-10.662,11.785-26.054,19.2-43.16,19.2
	c-15.542,0-30.153-6.053-41.146-17.046c-10.993-10.983-17.046-25.603-17.046-41.146c0-9.981-3.888-19.36-10.943-26.415
	c-7.055-7.055-16.434-10.943-26.415-10.943c-15.542,0-30.153-6.053-41.146-17.046s-17.046-25.604-17.046-41.146
	c0-17.106,7.416-32.498,19.2-43.16c-11.785-10.652-19.2-26.054-19.2-43.16c0-15.542,6.053-30.153,17.046-41.146
	c10.983-10.983,25.593-17.036,41.136-17.036h0.01c9.981,0,19.36-3.888,26.415-10.943c7.055-7.065,10.943-16.444,10.943-26.425
	c0-15.542,6.053-30.153,17.046-41.146C182.677,6.053,197.287,0,212.83,0c0.01,0,0.01,0,0.01,0c17.106,0,32.498,7.415,43.16,19.2
	c0.11-0.12,0.22-0.241,0.331-0.361C266.973,7.265,282.235,0,299.16,0c15.542,0,30.153,6.053,41.146,17.036
	c10.993,10.993,17.046,25.604,17.036,41.156c0,9.971,3.888,19.35,10.943,26.415c7.065,7.055,16.444,10.943,26.425,10.943
	c15.542,0,30.153,6.053,41.146,17.036c10.993,10.993,17.046,25.614,17.046,41.156c0,17.096-7.426,32.498-19.21,43.15
	C445.476,207.554,452.902,222.946,452.902,240.052z"/>
	<path style="fill:#00CC71;" d="M452.902,240.052c0,15.542-6.053,30.163-17.046,41.146c-10.993,10.993-25.594,17.046-41.136,17.046
		c-0.01,0-0.01,0-0.02,0c-9.971,0-19.35,3.888-26.415,10.943c-7.055,7.055-10.943,16.434-10.943,26.415
		c0,15.542-6.053,30.163-17.036,41.146c-10.993,10.993-25.603,17.046-41.146,17.046c0,0,0,0-0.01,0
		c-16.915,0-32.177-7.265-42.819-18.839V18.839C266.973,7.265,282.235,0,299.16,0c15.542,0,30.153,6.053,41.146,17.036
		c10.993,10.993,17.046,25.604,17.036,41.156c0,9.971,3.888,19.35,10.943,26.415c7.065,7.055,16.444,10.943,26.425,10.943
		c15.542,0,30.153,6.053,41.146,17.036c10.993,10.993,17.046,25.614,17.046,41.156c0,17.096-7.426,32.498-19.21,43.15
		C445.476,207.554,452.902,222.946,452.902,240.052z"/>
	<path style="fill:#00CC71;" d="M433.691,196.891c11.785-10.652,19.21-26.054,19.21-43.15c0-15.542-6.053-30.163-17.046-41.156
		c-10.993-10.983-25.604-17.036-41.146-17.036c-9.981,0-19.36-3.888-26.425-10.943c-7.055-7.065-10.943-16.444-10.943-26.415
		c0.01-15.553-6.043-30.163-17.036-41.156C329.313,6.053,314.703,0,299.16,0c-16.925,0-32.187,7.265-42.83,18.839
		c-0.11,0.12-0.22,0.241-0.331,0.361C245.338,7.415,229.946,0,212.84,0c0,0,0,0-0.01,0c-15.542,0-30.153,6.053-41.136,17.036
		c-10.993,10.993-17.046,25.604-17.046,41.146c0,9.981-3.888,19.36-10.943,26.425c-7.055,7.055-16.434,10.943-26.415,10.943h-0.01
		c-15.542,0-30.153,6.053-41.136,17.036c-10.993,10.993-17.046,25.604-17.046,41.146c0,17.106,7.416,32.508,19.2,43.16
		c-11.785,10.662-19.2,26.054-19.2,43.16c0,15.542,6.053,30.153,17.046,41.146s25.604,17.046,41.146,17.046
		c9.981,0,19.36,3.888,26.415,10.943c7.055,7.055,10.943,16.434,10.943,26.415c0,15.542,6.053,30.163,17.046,41.146
		c10.993,10.993,25.604,17.046,41.146,17.046c10.201,0,19.781-2.656,28.129-7.285v60.877c0,15.923,5.782,30.514,15.362,41.777
		C268.196,503.132,285.872,512,305.584,512c35.624,0,64.605-28.991,64.605-64.615c0-8.307-6.724-15.031-15.031-15.031
		c-8.297,0-15.031,6.724-15.031,15.031c0,19.05-15.492,34.552-34.542,34.552c-19.06,0-34.552-15.502-34.552-34.552v-60.877
		c8.337,4.63,17.927,7.285,28.119,7.285c0.01,0,0.01,0,0.01,0c15.542,0,30.153-6.053,41.146-17.046
		c10.983-10.983,17.036-25.603,17.036-41.146c0-9.981,3.888-19.36,10.943-26.415c7.065-7.055,16.444-10.943,26.415-10.943
		c0.01,0,0.01,0,0.02,0c15.542,0,30.143-6.053,41.136-17.046c10.993-10.983,17.046-25.604,17.046-41.146
		C452.902,222.946,445.476,207.554,433.691,196.891z M240.969,335.682c-0.04,15.472-12.646,28.049-28.129,28.049
		c-7.516,0-14.58-2.926-19.892-8.237c-5.311-5.311-8.237-12.376-8.237-19.882c0-18.018-7.015-34.953-19.741-47.68
		c-12.737-12.737-29.672-19.751-47.68-19.751c-7.516,0-14.58-2.926-19.892-8.237c-5.311-5.311-8.237-12.376-8.237-19.892
		c0-15.502,12.616-28.129,28.129-28.129h123.678L240.969,335.682L240.969,335.682z M240.969,181.86H117.29
		c-15.512,0-28.129-12.616-28.129-28.129c0-7.506,2.926-14.57,8.237-19.882c5.311-5.311,12.366-8.237,19.882-8.237h0.01
		c18.008,0,34.943-7.015,47.68-19.751c12.727-12.737,19.741-29.672,19.741-47.68c0-7.516,2.926-14.57,8.237-19.892
		c5.311-5.311,12.376-8.227,19.882-8.227c0.01,0,0.01,0,0.01,0c15.512,0,28.129,12.616,28.129,28.119V181.86z M414.591,259.943
		c-5.301,5.311-12.366,8.237-19.872,8.237c-0.01,0-0.01,0-0.01,0c-18.008,0-34.943,7.015-47.68,19.751
		c-12.737,12.727-19.751,29.662-19.751,47.67c0,7.516-2.926,14.58-8.237,19.892c-5.311,5.311-12.366,8.237-19.882,8.237
		c-7.756,0-14.791-3.157-19.882-8.247c-5.091-5.091-8.247-12.125-8.247-19.882V211.923H394.71c15.512,0,28.129,12.626,28.129,28.129
		C422.839,247.567,419.913,254.632,414.591,259.943z M394.71,181.86H271.031V58.182c0-15.502,12.616-28.119,28.129-28.119
		c7.506,0,14.57,2.926,19.892,8.237c5.311,5.311,8.237,12.366,8.227,19.882c0,18.008,7.015,34.943,19.751,47.68
		s29.672,19.751,47.68,19.751c7.516,0,14.58,2.926,19.892,8.237c5.311,5.311,8.237,12.376,8.237,19.882
		C422.839,169.244,410.222,181.86,394.71,181.86z"/>
<path style="fill:#00AB5E;" d="M433.691,196.891c11.785-10.652,19.21-26.054,19.21-43.15c0-15.542-6.053-30.163-17.046-41.156
	c-10.993-10.983-25.604-17.036-41.146-17.036c-9.981,0-19.36-3.888-26.425-10.943c-7.055-7.065-10.943-16.444-10.943-26.415
	c0.01-15.553-6.043-30.163-17.036-41.156C329.313,6.053,314.703,0,299.16,0c-16.925,0-32.187,7.265-42.83,18.839v470.323
	C268.196,503.131,285.872,512,305.584,512c35.624,0,64.605-28.991,64.605-64.615c0-8.307-6.724-15.031-15.031-15.031
	c-8.297,0-15.031,6.724-15.031,15.031c0,19.05-15.492,34.552-34.542,34.552c-19.06,0-34.552-15.502-34.552-34.552v-60.877
	c8.337,4.63,17.927,7.285,28.119,7.285c0.01,0,0.01,0,0.01,0c15.542,0,30.153-6.053,41.146-17.046
	c10.983-10.983,17.036-25.603,17.036-41.146c0-9.981,3.888-19.36,10.943-26.415c7.065-7.055,16.444-10.943,26.415-10.943
	c0.01,0,0.01,0,0.02,0c15.542,0,30.143-6.053,41.136-17.046c10.993-10.983,17.046-25.604,17.046-41.146
	C452.902,222.946,445.476,207.554,433.691,196.891z M414.591,259.943c-5.301,5.311-12.366,8.237-19.872,8.237c-0.01,0-0.01,0-0.01,0
	c-18.008,0-34.943,7.015-47.68,19.751c-12.737,12.727-19.751,29.662-19.751,47.67c0,7.516-2.926,14.58-8.237,19.892
	c-5.311,5.311-12.366,8.237-19.882,8.237c-7.756,0-14.791-3.157-19.882-8.247c-5.091-5.091-8.247-12.125-8.247-19.882V211.923
	H394.71c15.512,0,28.129,12.626,28.129,28.129C422.839,247.567,419.913,254.632,414.591,259.943z M394.71,181.86H271.031V58.182
	c0-15.502,12.616-28.119,28.129-28.119c7.506,0,14.57,2.926,19.892,8.237c5.311,5.311,8.237,12.366,8.227,19.882
	c0,18.008,7.015,34.943,19.751,47.68s29.672,19.751,47.68,19.751c7.516,0,14.58,2.926,19.892,8.237
	c5.311,5.311,8.237,12.376,8.237,19.882C422.839,169.244,410.222,181.86,394.71,181.86z"/>
</svg>
